<?xml version="1.0" encoding="utf-8"?>
<svg width="55" height="55" viewBox="0 0 28 29" fill="none" xmlns="http://www.w3.org/2000/svg">
    <g>
        <path
            d="M17.2 10.1992C17.2 10.8321 17.0123 11.4508 16.6607 11.977C16.3091 12.5033 15.8093 12.9134 15.2246 13.1556C14.6399 13.3978 13.9965 13.4612 13.3757 13.3377C12.755 13.2143 12.1848 12.9095 11.7373 12.462C11.2897 12.0144 10.985 11.4442 10.8615 10.8235C10.738 10.2028 10.8014 9.55935 11.0436 8.97463C11.2858 8.38991 11.6959 7.89014 12.2222 7.53852C12.7484 7.1869 13.3671 6.99922 14 6.99922C14.8479 7.00186 15.6603 7.33985 16.2598 7.93939C16.8594 8.53894 17.1974 9.35134 17.2 10.1992ZM24 5.79922V14.5992C24 16.0844 23.41 17.5088 22.3598 18.559C21.3096 19.6092 19.8852 20.1992 18.4 20.1992H9.6C8.11479 20.1992 6.69041 19.6092 5.6402 18.559C4.59 17.5088 4 16.0844 4 14.5992V5.79922C4 4.31401 4.59 2.88962 5.6402 1.83942C6.69041 0.789217 8.11479 0.199219 9.6 0.199219H18.4C19.8852 0.199219 21.3096 0.789217 22.3598 1.83942C23.41 2.88962 24 4.31401 24 5.79922ZM18.8 10.1992C18.8 9.24987 18.5185 8.32184 17.9911 7.53248C17.4636 6.74313 16.714 6.1279 15.8369 5.7646C14.9598 5.4013 13.9947 5.30624 13.0636 5.49145C12.1325 5.67666 11.2772 6.13381 10.6059 6.80511C9.9346 7.4764 9.47744 8.33168 9.29223 9.26279C9.10702 10.1939 9.20208 11.159 9.56538 12.0361C9.92868 12.9132 10.5439 13.6628 11.3333 14.1903C12.1226 14.7177 13.0506 14.9992 14 14.9992C15.273 14.9992 16.4939 14.4935 17.3941 13.5933C18.2943 12.6932 18.8 11.4723 18.8 10.1992ZM20.4 4.99922C20.4 4.76188 20.3296 4.52987 20.1978 4.33253C20.0659 4.1352 19.8785 3.98139 19.6592 3.89056C19.4399 3.79974 19.1987 3.77597 18.9659 3.82228C18.7331 3.86858 18.5193 3.98287 18.3515 4.15069C18.1837 4.31851 18.0694 4.53233 18.0231 4.76511C17.9768 4.99789 18.0005 5.23917 18.0913 5.45844C18.1822 5.67771 18.336 5.86513 18.5333 5.99698C18.7307 6.12884 18.9627 6.19922 19.2 6.19922C19.5183 6.19922 19.8235 6.07279 20.0485 5.84775C20.2736 5.6227 20.4 5.31748 20.4 4.99922Z"
            fill="white" />
    </g>
</svg>