<svg width="182" height="34" viewBox="0 0 182 34" fill="none" xmlns="http://www.w3.org/2000/svg">
    <path
        d="M117.6 32.1542C109.537 30.665 106 24.4355 106 16.2554C106 8.07526 109.537 1.88772 117.6 0.398519V4.11104C111.642 5.95682 110.484 10.2986 110.484 16.2554C110.484 22.1912 111.642 26.575 117.6 28.4417V32.1542Z"
        fill="#FCFCFC" />
    <path
        d="M120.589 34L124.547 27.5398C125.032 26.7637 125.179 25.9877 125.179 25.0228V12.8365L120.589 13.0672V7.82357L128.189 7.57187C130.232 7.48797 131.389 8.6206 131.389 10.6551V25.4843C131.389 26.4491 131.242 27.1203 130.758 28.0012L127.326 34H120.589ZM124.379 2.97841C124.379 1.09068 125.684 0 127.874 0C130.105 0 131.495 1.06971 131.495 2.97841C131.495 4.90808 130.105 5.95682 127.874 5.95682C125.684 5.95682 124.379 4.92906 124.379 2.97841Z"
        fill="#FCFCFC" />
    <path
        d="M134.316 21.3313H139.642V12.8365L135.053 13.0672V7.82357L142.126 7.44602C144.253 7.34115 145.411 8.49476 145.411 10.5713V21.3523H150.737V26.5959H134.316V21.3313ZM138.526 2.97841C138.526 1.09068 139.832 0 142.021 0C144.211 0 145.6 1.06971 145.6 2.97841C145.6 4.90808 144.211 5.95682 142.021 5.95682C139.832 5.95682 138.526 4.92906 138.526 2.97841Z"
        fill="#FCFCFC" />
    <path
        d="M159.726 21.7088L166.653 21.3313V26.575L156.884 26.9525C154.842 27.0364 153.705 25.8408 153.705 23.7853V13.0463H149.263V7.80259H153.747V4.27884L159.747 2.41209V7.80259H165.937V13.0463H159.747V21.7088H159.726Z"
        fill="#FCFCFC" />
    <path
        d="M170.4 28.4417C176.358 26.575 177.516 22.1912 177.516 16.2554C177.516 10.3196 176.358 5.95682 170.4 4.11104V0.377545C178.463 1.86675 182 8.07526 182 16.2344C182 24.3936 178.463 30.644 170.4 32.1333V28.4417Z"
        fill="#FCFCFC" />
    <path d="M135.326 32.343V29.7841H134.316V29.5114H136.589V29.7841H135.6V32.343H135.326Z"
        fill="#FCFCFC" />
    <path
        d="M137.705 32.343V29.5114H139.495V29.7841H138V30.7699H139.242V31.0426H138V32.0703H139.495V32.343H137.705Z"
        fill="#FCFCFC" />
    <path
        d="M141.811 32.3849C141.537 32.3849 141.284 32.322 141.095 32.1962C140.905 32.0703 140.758 31.9025 140.653 31.6718C140.547 31.4411 140.505 31.1894 140.505 30.8957C140.505 30.6021 140.547 30.3504 140.653 30.1197C140.758 29.889 140.905 29.7212 141.095 29.5953C141.284 29.4695 141.537 29.4065 141.811 29.4065C142.147 29.4065 142.421 29.4904 142.611 29.6582C142.821 29.826 142.968 30.0568 143.032 30.3294L142.737 30.4133C142.674 30.1826 142.568 30.0148 142.421 29.889C142.274 29.7631 142.063 29.7002 141.811 29.7002C141.579 29.7002 141.411 29.7421 141.263 29.847C141.116 29.9519 141.011 30.0987 140.926 30.2665C140.842 30.4553 140.821 30.665 140.821 30.8957C140.821 31.1265 140.863 31.3362 140.926 31.525C141.011 31.7138 141.116 31.8396 141.263 31.9445C141.411 32.0494 141.6 32.0913 141.832 32.0913C142.084 32.0913 142.295 32.0284 142.442 31.9025C142.589 31.7767 142.716 31.5879 142.758 31.3782L143.053 31.4621C142.968 31.7557 142.821 31.9655 142.632 32.1333C142.4 32.301 142.147 32.3849 141.811 32.3849Z"
        fill="#FCFCFC" />
    <path
        d="M144.274 32.343V29.5114H144.568V30.7909H146.147V29.5114H146.442V32.343H146.147V31.0635H144.568V32.343H144.274Z"
        fill="#FCFCFC" />
    <path
        d="M147.768 32.343V29.5114H148.063L149.621 31.8396V29.5114H149.916V32.343H149.621L148.063 30.0148V32.343H147.768Z"
        fill="#FCFCFC" />
    <path
        d="M152.421 32.3849C152.147 32.3849 151.895 32.322 151.705 32.1962C151.516 32.0703 151.368 31.9025 151.263 31.6718C151.158 31.4411 151.116 31.1894 151.116 30.8957C151.116 30.6021 151.158 30.3504 151.263 30.1197C151.368 29.889 151.516 29.7212 151.705 29.5953C151.895 29.4695 152.147 29.4065 152.421 29.4065C152.716 29.4065 152.947 29.4695 153.137 29.5953C153.326 29.7212 153.474 29.889 153.579 30.1197C153.684 30.3504 153.726 30.6021 153.726 30.8957C153.726 31.1894 153.684 31.4411 153.579 31.6718C153.474 31.9025 153.326 32.0703 153.137 32.1962C152.947 32.322 152.716 32.3849 152.421 32.3849ZM152.421 32.1123C152.653 32.1123 152.821 32.0703 152.968 31.9655C153.116 31.8606 153.221 31.7138 153.305 31.546C153.389 31.3572 153.411 31.1474 153.411 30.9167C153.411 30.686 153.368 30.4762 153.305 30.2875C153.221 30.0987 153.116 29.9729 152.968 29.868C152.821 29.7631 152.632 29.7212 152.421 29.7212C152.189 29.7212 152.021 29.7631 151.874 29.868C151.726 29.9729 151.621 30.1197 151.537 30.2875C151.453 30.4762 151.432 30.686 151.432 30.9167C151.432 31.1474 151.474 31.3572 151.537 31.546C151.621 31.7347 151.726 31.8606 151.874 31.9655C152.021 32.0703 152.189 32.1123 152.421 32.1123Z"
        fill="#FCFCFC" />
    <path d="M154.968 32.343V29.5114H155.263V32.0703H156.611V32.343H154.968Z" fill="#FCFCFC" />
    <path
        d="M158.8 32.3849C158.526 32.3849 158.274 32.322 158.084 32.1962C157.895 32.0703 157.747 31.9025 157.642 31.6718C157.537 31.4411 157.495 31.1894 157.495 30.8957C157.495 30.6021 157.537 30.3504 157.642 30.1197C157.747 29.889 157.895 29.7212 158.084 29.5953C158.274 29.4695 158.526 29.4065 158.8 29.4065C159.095 29.4065 159.326 29.4695 159.516 29.5953C159.705 29.7212 159.853 29.889 159.958 30.1197C160.063 30.3504 160.105 30.6021 160.105 30.8957C160.105 31.1894 160.063 31.4411 159.958 31.6718C159.853 31.9025 159.705 32.0703 159.516 32.1962C159.326 32.322 159.095 32.3849 158.8 32.3849ZM158.8 32.1123C159.032 32.1123 159.2 32.0703 159.347 31.9655C159.495 31.8606 159.6 31.7138 159.684 31.546C159.768 31.3572 159.789 31.1474 159.789 30.9167C159.789 30.686 159.747 30.4762 159.684 30.2875C159.6 30.0987 159.495 29.9729 159.347 29.868C159.2 29.7631 159.011 29.7212 158.8 29.7212C158.568 29.7212 158.4 29.7631 158.253 29.868C158.105 29.9729 158 30.1197 157.916 30.2875C157.832 30.4762 157.811 30.686 157.811 30.9167C157.811 31.1474 157.853 31.3572 157.916 31.546C157.979 31.7347 158.105 31.8606 158.253 31.9655C158.4 32.0703 158.589 32.1123 158.8 32.1123Z"
        fill="#FCFCFC" />
    <path
        d="M162.442 32.3849C162.232 32.3849 162.063 32.343 161.895 32.2801C161.726 32.2172 161.6 32.1123 161.495 31.9864C161.389 31.8606 161.305 31.6928 161.242 31.525C161.179 31.3362 161.158 31.1474 161.158 30.9167C161.158 30.6231 161.2 30.3714 161.305 30.1407C161.411 29.9099 161.558 29.7421 161.747 29.6163C161.937 29.4904 162.168 29.4275 162.442 29.4275C162.737 29.4275 162.989 29.4904 163.179 29.6373C163.368 29.7841 163.495 29.9729 163.579 30.2036L163.284 30.2665C163.221 30.0987 163.116 29.9519 162.968 29.847C162.821 29.7421 162.653 29.7002 162.442 29.7002C162.211 29.7002 162.042 29.7421 161.895 29.847C161.747 29.9519 161.642 30.0777 161.558 30.2665C161.474 30.4553 161.453 30.665 161.453 30.8957C161.453 31.1265 161.495 31.3362 161.558 31.525C161.642 31.7138 161.747 31.8396 161.895 31.9445C162.042 32.0494 162.232 32.0913 162.442 32.0913C162.653 32.0913 162.821 32.0494 162.947 31.9655C163.074 31.8816 163.179 31.7767 163.242 31.6299C163.305 31.483 163.347 31.3152 163.368 31.1055H162.716V30.8538H163.684C163.684 30.8748 163.684 30.9167 163.684 30.9587C163.684 31.0006 163.684 31.0216 163.684 31.0216C163.684 31.2733 163.642 31.504 163.537 31.7138C163.453 31.9235 163.305 32.0703 163.116 32.1962C162.947 32.343 162.716 32.3849 162.442 32.3849Z"
        fill="#FCFCFC" />
    <path
        d="M165.432 32.343V31.1474L164.484 29.4904H164.821L165.579 30.8118L166.337 29.4904H166.674L165.726 31.1474V32.343H165.432Z"
        fill="#FCFCFC" />
    <path
        d="M0.91 23V13.64H4.4395C4.5305 13.64 4.628 13.6443 4.732 13.653C4.84033 13.6573 4.953 13.6703 5.07 13.692C5.538 13.7657 5.93883 13.9347 6.2725 14.199C6.6105 14.459 6.86833 14.7883 7.046 15.187C7.22367 15.5813 7.3125 16.0168 7.3125 16.4935C7.3125 16.9745 7.22367 17.4143 7.046 17.813C6.86833 18.2073 6.6105 18.5367 6.2725 18.801C5.93883 19.061 5.538 19.2278 5.07 19.3015C4.953 19.3188 4.84033 19.3318 4.732 19.3405C4.628 19.3492 4.5305 19.3535 4.4395 19.3535H1.6575V23H0.91ZM1.6575 18.619H4.4265C4.5045 18.619 4.59333 18.6147 4.693 18.606C4.797 18.5973 4.901 18.5843 5.005 18.567C5.343 18.4977 5.62467 18.3612 5.85 18.1575C6.07533 17.9495 6.24433 17.7003 6.357 17.41C6.46967 17.1197 6.526 16.8142 6.526 16.4935C6.526 16.1728 6.46967 15.8695 6.357 15.5835C6.24433 15.2932 6.07533 15.0462 5.85 14.8425C5.62467 14.6345 5.343 14.4958 5.005 14.4265C4.901 14.4048 4.797 14.3897 4.693 14.381C4.59333 14.3723 4.5045 14.368 4.4265 14.368H1.6575V18.619ZM12.3536 23.195C11.4219 23.195 10.6397 22.9892 10.0071 22.5775C9.37439 22.1615 8.89772 21.5873 8.57705 20.855C8.25639 20.1227 8.09605 19.2777 8.09605 18.32C8.09605 17.3623 8.25639 16.5173 8.57705 15.785C8.89772 15.0527 9.37439 14.4807 10.0071 14.069C10.6397 13.653 11.4219 13.445 12.3536 13.445C13.2852 13.445 14.0652 13.653 14.6936 14.069C15.3262 14.4807 15.8029 15.0527 16.1236 15.785C16.4442 16.5173 16.6046 17.3623 16.6046 18.32C16.6046 19.2777 16.4442 20.1227 16.1236 20.855C15.8029 21.5873 15.3262 22.1615 14.6936 22.5775C14.0652 22.9892 13.2852 23.195 12.3536 23.195ZM12.3536 22.4605C13.1206 22.4648 13.7597 22.2915 14.2711 21.9405C14.7824 21.5852 15.1659 21.0955 15.4216 20.4715C15.6772 19.8475 15.8051 19.1303 15.8051 18.32C15.8051 17.5097 15.6772 16.7925 15.4216 16.1685C15.1659 15.5445 14.7824 15.057 14.2711 14.706C13.7597 14.355 13.1206 14.1795 12.3536 14.1795C11.5866 14.1752 10.9474 14.3485 10.4361 14.6995C9.92905 15.0505 9.54772 15.5402 9.29205 16.1685C9.03639 16.7925 8.90422 17.5097 8.89555 18.32C8.88689 19.1303 9.01039 19.8475 9.26605 20.4715C9.52605 21.0912 9.91389 21.5787 10.4296 21.934C10.9452 22.285 11.5866 22.4605 12.3536 22.4605ZM19.5305 23L16.846 13.64H17.6195L19.914 21.687L22.202 13.64H22.9885L25.283 21.687L27.571 13.64H28.3575L25.6665 23H24.8995L22.5985 14.979L20.2975 23H19.5305ZM29.5125 23V13.64H35.2975V14.368H30.26V17.9235H34.5175V18.6515H30.26V22.272H35.2975V23H29.5125ZM36.8631 23V13.64H40.3926C40.4836 13.64 40.5811 13.6443 40.6851 13.653C40.7935 13.6573 40.9061 13.6703 41.0231 13.692C41.4911 13.7657 41.892 13.9347 42.2256 14.199C42.5636 14.459 42.8215 14.7883 42.9991 15.187C43.1768 15.5813 43.2656 16.0168 43.2656 16.4935C43.2656 17.1825 43.0815 17.7827 42.7131 18.294C42.3448 18.8053 41.8313 19.1303 41.1726 19.269L40.9581 19.3535H37.6106V23H36.8631ZM42.6286 23L40.7826 19.191L41.4781 18.84L43.5061 23H42.6286ZM37.6106 18.619H40.3796C40.4576 18.619 40.5465 18.6147 40.6461 18.606C40.7501 18.5973 40.8541 18.5843 40.9581 18.567C41.2961 18.4977 41.5778 18.3612 41.8031 18.1575C42.0285 17.9495 42.1975 17.7003 42.3101 17.41C42.4228 17.1197 42.4791 16.8142 42.4791 16.4935C42.4791 16.1728 42.4228 15.8695 42.3101 15.5835C42.1975 15.2932 42.0285 15.0462 41.8031 14.8425C41.5778 14.6345 41.2961 14.4958 40.9581 14.4265C40.8541 14.4048 40.7501 14.3897 40.6461 14.381C40.5465 14.3723 40.4576 14.368 40.3796 14.368H37.6106V18.619ZM44.9373 23V13.64H50.7223V14.368H45.6848V17.9235H49.9423V18.6515H45.6848V22.272H50.7223V23H44.9373ZM52.2879 23V13.64H55.0764C55.1848 13.64 55.3603 13.6422 55.6029 13.6465C55.8499 13.6508 56.0839 13.6703 56.3049 13.705C57.0069 13.8003 57.5898 14.0647 58.0534 14.498C58.5171 14.927 58.8638 15.473 59.0934 16.136C59.3231 16.7947 59.4379 17.5227 59.4379 18.32C59.4379 19.1217 59.3231 19.854 59.0934 20.517C58.8638 21.1757 58.5171 21.7195 58.0534 22.1485C57.5898 22.5775 57.0069 22.8397 56.3049 22.935C56.0839 22.9653 55.8478 22.9848 55.5964 22.9935C55.3494 22.9978 55.1761 23 55.0764 23H52.2879ZM53.0744 22.2655H55.0764C55.2714 22.2655 55.4729 22.2612 55.6809 22.2525C55.8889 22.2395 56.0666 22.22 56.2139 22.194C56.7946 22.09 57.2626 21.8603 57.6179 21.505C57.9733 21.1453 58.2311 20.6925 58.3914 20.1465C58.5561 19.5962 58.6384 18.9873 58.6384 18.32C58.6384 17.6483 58.5561 17.0395 58.3914 16.4935C58.2268 15.9432 57.9668 15.4903 57.6114 15.135C57.2561 14.7753 56.7903 14.5457 56.2139 14.446C56.0666 14.42 55.8846 14.4027 55.6679 14.394C55.4556 14.381 55.2584 14.3745 55.0764 14.3745H53.0744V22.2655ZM63.4852 23V13.64H67.0667C67.552 13.64 67.9875 13.744 68.3732 13.952C68.7632 14.1557 69.0687 14.4352 69.2897 14.7905C69.515 15.1458 69.6277 15.5467 69.6277 15.993C69.6277 16.4957 69.489 16.9485 69.2117 17.3515C68.9344 17.7502 68.566 18.0297 68.1067 18.19L68.0807 17.878C68.696 18.0643 69.1835 18.3763 69.5432 18.814C69.9072 19.2473 70.0892 19.7847 70.0892 20.426C70.0892 20.9633 69.97 21.4248 69.7317 21.8105C69.4977 22.1918 69.1727 22.4865 68.7567 22.6945C68.3407 22.8982 67.8684 23 67.3397 23H63.4852ZM64.2392 22.2655H67.0927C67.5087 22.2655 67.8814 22.194 68.2107 22.051C68.5444 21.908 68.8065 21.7022 68.9972 21.4335C69.1922 21.1648 69.2897 20.8398 69.2897 20.4585C69.2897 20.0815 69.2009 19.7413 69.0232 19.438C68.8499 19.1303 68.6137 18.8877 68.3147 18.71C68.0157 18.528 67.6799 18.437 67.3072 18.437H64.2392V22.2655ZM64.2392 17.7155H67.0602C67.3852 17.7155 67.682 17.6397 67.9507 17.488C68.2237 17.3363 68.4404 17.1305 68.6007 16.8705C68.761 16.6062 68.8412 16.305 68.8412 15.967C68.8412 15.486 68.67 15.0982 68.3277 14.8035C67.9897 14.5088 67.5672 14.3615 67.0602 14.3615H64.2392V17.7155ZM73.1981 23V19.048L70.0781 13.64H70.9426L73.5751 18.19L76.2011 13.64H77.0656L73.9521 19.048V23H73.1981Z"
        fill="#FCFCFC" />
</svg>