<svg style="width: 5em;" viewBox="0 0 211 153" fill="none" xmlns="http://www.w3.org/2000/svg">
    <path fill-rule="evenodd" style="fill: white" clip-rule="evenodd"
        d="M135.01 0.069617C133.441 0.454189 132.369 3.50443 132.825 6.28613C133.434 10.0051 134.497 18.7134 134.995 24.0777C136.209 37.1372 136.419 56.4333 135.435 64.5374C134.002 76.3395 130.36 92.2076 127.573 98.795C126.256 101.908 126.366 102.545 128.395 103.547C129.561 104.122 130.01 104.171 133.775 104.141C138.455 104.104 139.372 103.907 139.896 102.825C140.1 102.404 141.291 98.0303 142.542 93.1051C144.785 84.2762 145.492 81.8766 146.324 80.2659C147.155 78.6549 147.305 78.6576 150.101 80.3317C153.777 82.5321 163.201 87.1229 174.441 92.1879C185.43 97.1396 187.649 98.0023 189.396 98.0023C192.722 98.0023 193.69 95.6504 191.32 93.3293C188.656 90.7217 177.028 82.0982 168.956 76.7438C164.023 73.4719 162.096 71.8201 161.558 70.4028C161.127 69.2666 161.26 67.6041 161.88 66.3873C162.201 65.7572 165.077 61.8432 168.271 57.6891C182.131 39.6639 188.796 30.1905 189.489 27.5276C190.152 24.9799 188.599 22.3139 186.444 22.3008C185.461 22.2947 185.286 22.4771 178.094 31.0038C167.921 43.0644 163.83 47.6781 159.892 51.5296C156.587 54.762 153.599 57.2039 152.535 57.5421C151.545 57.857 150.89 57.2261 150.89 55.9558C150.888 51.7532 148.001 31.9241 145.789 20.9232C144.72 15.6108 142.366 6.11771 141.753 4.64663C140.629 1.9527 137.1 -0.442781 135.01 0.069617ZM66.1343 0.243249C60.2214 1.06122 55.6136 2.25443 51.2096 4.1079C48.6891 5.1689 43.5517 7.9764 42.4465 8.89723L41.7618 9.4675L42.527 9.00942C45.148 7.43958 45.9953 6.973 46.581 6.77714C47.591 6.4392 50.4489 6.64492 51.1595 7.10685C51.5968 7.39102 51.8975 7.433 52.127 7.24209C52.3105 7.08985 52.6169 7.06215 52.8083 7.18064C53.1334 7.38171 56.0841 6.53821 56.9213 6.0047C57.2074 5.82228 57.2504 5.90185 57.1083 6.3506C56.9366 6.89208 57.0012 6.92362 58.0199 6.79524C58.8179 6.69485 59.3741 6.80978 60.0628 7.21684C60.5837 7.52461 61.1612 7.74104 61.3469 7.69798C61.5326 7.65491 61.7407 7.77396 61.8097 7.9624C61.8848 8.16731 61.7057 8.30528 61.3647 8.30528C61.0512 8.30528 60.7943 8.42872 60.7943 8.57958C60.7943 8.87418 61.4923 8.97047 62.9166 8.87227C63.8214 8.81 63.9268 8.95263 63.8162 10.0882L63.7625 10.6369L64.1867 10.0882C64.42 9.78652 64.6147 9.40139 64.6194 9.23269C64.6298 8.87116 66.5911 8.49509 66.8077 8.81329C67.058 9.18113 68.002 9.49686 69.0489 9.56296C70.219 9.63703 71.2846 10.1417 71.0551 10.5134C70.9667 10.6569 71.0365 10.774 71.2101 10.774C71.3837 10.774 71.5902 10.5271 71.6688 10.2254C71.7477 9.92367 71.9763 9.67679 72.1768 9.67679C72.3775 9.67679 72.8538 9.38685 73.2352 9.03272L73.9291 8.38867L73.1837 8.04854C72.5018 7.73748 72.4786 7.67904 72.9104 7.3625C73.1703 7.17241 73.3058 6.93981 73.2122 6.84572C72.9723 6.60543 74.5034 6.05847 74.9432 6.22772C75.3994 6.403 75.2967 7.52104 74.7877 7.92043C74.5089 8.13905 74.49 8.27511 74.7192 8.41665C74.8925 8.52417 75.0344 8.86679 75.0344 9.17785C75.0344 9.64251 75.1059 9.68448 75.4331 9.41237C76.0211 8.92384 76.4663 9.30923 76.0627 9.95686C75.8047 10.3702 75.8058 10.5592 76.0662 10.8201C76.3286 11.0829 76.5707 10.9907 77.1978 10.3889C77.6365 9.96783 78.0996 9.63537 78.2266 9.64991C78.3534 9.66472 78.4575 9.56351 78.4575 9.42526C78.4575 8.87665 78.885 8.80177 79.5444 9.23462C80.3306 9.75058 80.4516 10.2254 79.7971 10.2254C79.4718 10.2254 79.3987 10.3935 79.5176 10.8678C79.6408 11.3599 79.5236 11.5933 79.017 11.8649C78.4545 12.1664 78.2882 12.1524 77.9076 11.7711C77.3229 11.1855 77.0502 11.1915 77.5341 11.7796C77.8723 12.1908 77.8367 12.2182 77.1783 12.0542C76.5693 11.9022 76.2612 12.0553 75.3406 12.9687C74.5472 13.7551 74.0034 14.0656 73.4181 14.0656C72.9693 14.0656 72.5246 14.191 72.4301 14.3443C72.3353 14.4977 72.1223 14.5391 71.9566 14.4365C71.7586 14.3139 71.7195 14.4178 71.8424 14.7391C71.9988 15.1467 71.9133 15.2059 71.332 15.0945C70.948 15.021 70.6923 15.0194 70.7635 15.091C70.8349 15.1623 70.3885 15.6089 69.7716 16.0834C68.4451 17.1033 67.732 18.0356 67.4863 19.0717C67.3475 19.6562 67.4063 19.826 67.7478 19.826C68.2802 19.826 68.3462 20.9194 67.8459 21.4523C67.5644 21.7522 67.6378 21.7853 68.2591 21.6386C69.1795 21.4213 70.3669 21.9902 71.6266 23.2518C72.1253 23.7513 72.5941 24.0988 72.6689 24.0242C72.7434 23.9496 73.1684 23.9685 73.6134 24.0664C74.3958 24.2384 74.4139 24.2777 74.1597 25.2583C73.7966 26.6592 73.8667 27.5814 74.3574 27.8562C74.5855 27.9843 74.7085 28.1917 74.631 28.3176C74.5532 28.4432 74.674 28.6169 74.8991 28.7035C75.1242 28.7899 75.3102 28.7104 75.3124 28.5266C75.3154 28.297 75.3918 28.311 75.5566 28.5716C75.8535 29.0412 76.1347 27.9275 76.1744 26.1254C76.2007 24.9258 76.2303 24.8872 77.6182 24.2423C78.9329 23.6314 79.0279 23.5225 78.9332 22.7336C78.877 22.2659 78.6881 21.5922 78.5136 21.2367C78.2428 20.6843 78.2822 20.5205 78.7847 20.1129C79.2002 19.7758 79.4072 19.2406 79.4893 18.2907C79.5939 17.0758 79.669 16.9486 80.2638 16.9735C82.0805 17.0498 83.2498 17.5682 83.2498 18.2979C83.2498 18.4767 83.5801 18.7392 83.9835 18.8816C84.6823 19.1279 84.6944 19.163 84.2379 19.6203C83.9742 19.8841 83.8959 20.1003 84.0637 20.1003C84.4252 20.1003 84.3282 20.972 83.9345 21.262C83.7838 21.3728 83.9339 21.4652 84.2683 21.4677C84.6949 21.4704 84.8289 21.5944 84.7182 21.8833C84.3359 22.8809 86.6099 21.8207 87.1768 20.737L87.5575 20.0092L87.92 21.4263C88.1194 22.2056 88.3683 22.8433 88.4727 22.8433C88.8018 22.8433 88.936 24.1902 88.6186 24.3048C88.439 24.3696 88.5674 24.6883 88.9347 25.089C89.2751 25.4605 89.4599 25.8675 89.3454 25.9937C89.2312 26.1196 89.2917 26.1341 89.4799 26.0255C89.6683 25.9172 89.8222 25.9663 89.8222 26.135C89.8222 26.3037 89.9274 26.3766 90.0558 26.2971C90.1842 26.2175 90.523 26.3297 90.8089 26.5464C91.3144 26.9299 91.3133 26.9406 90.7645 26.9491C90.4545 26.954 89.9616 27.1532 89.6691 27.3918C89.1452 27.8194 89.1452 27.8227 89.6853 27.6307C90.853 27.2154 91.5502 27.1469 91.353 27.4667C91.2413 27.6477 91.3283 27.7808 91.5586 27.7808C92.1795 27.7808 92.096 29.6375 91.4664 29.8378C91.1958 29.9236 90.8691 29.9623 90.7407 29.9236C90.612 29.885 90.1705 30.0783 89.7598 30.3532C89.1447 30.7649 88.7093 30.8209 87.2951 30.6689C86.3503 30.5674 85.3683 30.4251 85.1123 30.3529C84.8565 30.2805 84.4066 30.4624 84.1125 30.757C83.8184 31.0516 83.3424 31.3673 83.0548 31.4589C82.767 31.5503 82.1079 32.0703 81.59 32.6143L80.6483 33.6034L81.8894 32.7385C82.7514 32.1381 83.4955 31.8561 84.3247 31.8161C85.6707 31.7508 86.1532 32.287 85.1213 32.7012C84.7697 32.8422 84.6363 32.9657 84.8245 32.9753C85.0129 32.9846 85.1668 33.2819 85.1668 33.6358C85.1668 34.3572 85.9388 35.187 86.61 35.187C86.8526 35.187 87.1281 35.3112 87.2217 35.4632C87.4033 35.7572 87.05 35.9492 86.0691 36.0902C85.7369 36.138 85.21 36.4081 84.8987 36.6904C84.4471 37.0999 84.2642 37.1345 83.9963 36.8616C83.7304 36.5906 83.7915 36.4123 84.2902 36.0041C84.6363 35.7207 85.0676 35.5241 85.2486 35.5671C85.4294 35.6105 85.4844 35.5937 85.3705 35.5301C85.2566 35.4665 85.2407 35.2893 85.3349 35.1362C85.4398 34.9664 85.2873 34.9755 84.9439 35.1595C84.6344 35.3255 84.1267 35.4613 83.8156 35.4613C83.5045 35.4613 83.2498 35.583 83.2498 35.7317C83.2498 35.8804 82.6991 36.141 82.0257 36.3108C80.5828 36.6748 80.1463 37.1183 80.1463 38.2205C80.1463 38.6659 80.0127 39.0102 79.8495 38.9855C79.6863 38.9608 79.368 39.0116 79.1421 39.0982C78.9162 39.1849 78.3926 39.33 77.9783 39.4211C77.5157 39.5226 77.2219 39.7695 77.2164 40.0611C77.2118 40.3222 77.0472 40.7476 76.8508 41.0063C76.5693 41.3777 76.4203 41.4065 76.1443 41.1434C75.8636 40.8763 75.831 40.9314 75.9789 41.4219C76.0802 41.7581 76.043 42.2486 75.8962 42.5114C75.6689 42.9182 75.5887 42.8477 75.3564 42.0369C75.2066 41.5129 75.0727 41.3003 75.059 41.5645C75.0456 41.8286 74.8805 42.0464 74.6921 42.0486C74.4793 42.0514 74.4536 42.129 74.6245 42.2544C75.0949 42.5994 75.0963 44.7645 74.6266 45.2352C74.2572 45.6052 72.7078 46.7859 70.7213 48.2114C70.0172 48.7164 69.9438 49.5725 70.3946 52.0154C70.7029 53.6865 70.5575 54.6625 70.0005 54.6625C69.5659 54.6625 68.7359 52.9393 68.7359 52.0377C68.7359 51.6602 68.5384 51.0496 68.2972 50.6807C67.9532 50.1551 67.7522 50.0668 67.3675 50.2733C67.0153 50.4621 66.7814 50.4217 66.5405 50.1307C66.3274 49.8737 65.7126 49.725 64.8618 49.725C63.6818 49.725 63.4876 49.8081 63.2589 50.4108C62.9758 51.1566 62.4007 51.3017 61.9384 50.744C61.5315 50.2528 59.1085 50.4182 58.8073 50.9575C58.6802 51.1849 58.351 51.3708 58.0758 51.3708C57.3224 51.3708 56.8358 52.1378 56.8358 53.3255C56.8358 53.91 56.7507 54.3881 56.646 54.3881C56.5417 54.3881 56.3725 55.1713 56.2703 56.1283C55.957 59.0592 57.3 60.9442 59.6159 60.8247C60.8885 60.7588 61.5643 60.2451 61.8658 59.1141C62.034 58.4843 62.2709 58.328 63.3605 58.1277C64.9061 57.8438 65.1233 57.9864 64.5282 58.896C64.282 59.2724 64.0805 59.8896 64.0805 60.2673C64.0805 60.727 63.9597 60.9078 63.7154 60.814C63.4481 60.7111 63.3819 60.8883 63.4678 61.4759C63.5325 61.9169 63.4503 62.3616 63.2852 62.4639C62.5784 62.9014 63.096 63.1554 64.6101 63.1134C65.5146 63.0885 66.406 63.2108 66.6207 63.3891C66.8326 63.5655 67.0873 63.6286 67.1865 63.5293C67.4655 63.2498 67.4 64.1303 67.0421 65.4708C66.7428 66.5919 66.7694 66.7644 67.3844 67.6839C67.9918 68.5924 68.1367 68.667 69.0097 68.5191C70.7043 68.2319 71.2298 68.3096 71.9065 68.9462C72.4706 69.4773 72.5698 69.5006 72.5698 69.1026C72.5698 68.8453 72.7546 68.5636 72.9805 68.4769C73.2065 68.39 73.3913 68.0951 73.3913 67.8216C73.3913 67.4688 73.7878 67.1926 74.7573 66.87C75.5087 66.6201 76.1936 66.3014 76.2796 66.1623C76.5542 65.7171 76.9932 65.8908 76.8533 66.3889C76.4557 67.8037 76.3815 68.6519 76.6559 68.6519C76.8182 68.6519 76.9513 68.2948 76.9513 67.8584C76.9513 67.3876 77.1277 66.997 77.3846 66.8983C78.1513 66.6034 79.3532 66.7208 79.5003 67.1048C79.658 67.5163 82.4154 67.5382 83.3632 67.1356C83.7348 66.9776 83.8296 67.0064 83.6891 67.2343C83.5667 67.4326 83.7592 67.6581 84.1919 67.8227C84.5774 67.9694 84.8929 68.2163 84.8929 68.3707C84.8929 68.5254 85.1202 68.6519 85.3982 68.6519C85.9554 68.6519 86.8099 69.4633 86.8099 69.9927C86.8099 70.1781 86.9232 70.2599 87.0615 70.1743C87.2001 70.0884 87.4775 70.1737 87.6777 70.3638C87.8781 70.5536 88.6134 70.7166 89.3117 70.7256C90.8938 70.7465 91.7682 71.305 92.5396 72.7876L93.1401 73.9418L92.2491 74.8626C91.3193 75.8235 91.359 76.0131 92.3734 75.4543C92.7023 75.273 93.1954 75.0873 93.4696 75.0418C93.8664 74.9754 93.9329 75.0843 93.7976 75.5769C93.638 76.1582 93.6517 76.1653 94.028 75.6968C94.3837 75.2535 94.5521 75.2354 95.5481 75.5344C96.1665 75.7198 96.6684 76.0427 96.6684 76.2548C96.6684 76.4832 96.8012 76.5568 96.9962 76.4361C97.6315 76.043 100.068 76.3532 100.657 76.9024C100.968 77.1923 101.428 77.4296 101.678 77.4296C102.335 77.4296 102.539 78.6011 102.044 79.5258C101.813 79.957 101.12 80.8455 100.503 81.5002C99.6837 82.3714 99.3165 83.0435 99.1344 84.0057C98.7327 86.1274 97.0959 88.676 96.1352 88.676C95.7028 88.676 93.1437 90.2472 92.4591 90.933C92.2649 91.1277 92.1595 91.4481 92.2252 91.6453C92.2909 91.8425 91.3349 92.9952 90.1007 94.2067C87.9666 96.3019 87.8045 96.4045 86.7858 96.3071C86.1964 96.2508 85.7145 96.3008 85.7145 96.4179C85.7145 96.535 85.873 96.6308 86.0669 96.6308C86.2608 96.6308 86.4388 96.887 86.4623 97.1999C86.5072 97.7971 85.1884 98.5509 84.0988 98.5509C83.8011 98.5509 83.4829 98.7961 83.3868 99.0995C83.2633 99.4896 82.9724 99.6481 82.3807 99.6481C81.7396 99.6481 81.5857 99.7463 81.7116 100.075C81.8116 100.336 81.5936 100.764 81.1533 101.172C80.5187 101.761 80.4944 101.844 80.9506 101.851C81.4476 101.86 81.4463 101.877 80.9221 102.253C80.6209 102.47 80.2512 102.75 80.1006 102.876C79.1484 103.672 77.361 103.489 77.1214 102.572C77.0379 102.252 77.0743 101.884 77.2024 101.756C77.5281 101.429 77.2359 100.471 76.8109 100.471C76.4187 100.471 76.4075 98.662 76.7958 98.0325C76.9223 97.8273 77.1734 96.0396 77.3541 94.0594C77.6417 90.9041 77.6784 89.7795 77.5344 88.4991C77.5149 88.3262 76.5783 87.7165 75.4528 87.1443C73.5241 86.1634 73.3267 85.9749 72.0065 83.8504C70.5597 81.5227 69.7056 80.4469 69.3049 80.4469C69.1776 80.4469 69.0133 80.1315 68.9396 79.7458C68.8101 79.0669 69.3071 78.2525 69.8507 78.2525C69.9907 78.2525 70.1051 77.9905 70.1051 77.6704C70.1051 77.1838 70.0375 77.1443 69.6944 77.4296C69.4684 77.6175 69.2682 77.6943 69.2494 77.6002C69.1195 76.9526 69.1634 76.6775 69.4777 76.1733C69.6733 75.8595 69.7535 75.5229 69.656 75.4255C69.5588 75.3279 69.702 75.1625 69.9748 75.0574C70.2473 74.9526 70.816 74.4869 71.2383 74.0225C71.838 73.3628 72.0078 72.9061 72.0141 71.9361C72.0185 71.2432 71.8334 70.4244 71.5954 70.084C71.3607 69.7483 71.2394 69.3596 71.3257 69.2197C71.611 68.7572 70.3984 68.5935 69.9575 69.0348C69.7267 69.2661 69.5424 69.5214 69.5476 69.6021C69.553 69.683 69.5574 69.8251 69.5574 69.9178C69.5574 70.0105 69.2518 69.886 68.8786 69.641C68.505 69.3958 67.8889 69.1695 67.5093 69.1379C67.1295 69.1067 66.8189 68.9358 66.8189 68.7586C66.8189 68.4495 66.1617 68.0397 65.5866 67.9897C65.436 67.9769 65.275 67.7012 65.229 67.3775C65.183 67.0538 64.9056 66.5718 64.6128 66.3063C64.3201 66.0411 64.0805 65.6447 64.0805 65.4256C64.0805 65.1965 63.9173 65.0901 63.6963 65.1748C63.0032 65.4414 60.7981 64.5771 59.5434 63.5474C58.4436 62.6447 58.2387 62.5706 57.6207 62.8529C57.0333 63.1209 56.6206 63.0399 54.8907 62.3188C53.7698 61.8514 52.8527 61.3568 52.8527 61.2202C52.8527 61.0833 52.6372 60.9709 52.3735 60.97C52.1097 60.9695 51.4826 60.5825 50.9793 60.1101C50.2681 59.4424 50.095 59.0916 50.2013 58.5342C50.3782 57.6076 49.7954 56.2331 48.6127 54.7875C48.0946 54.1539 47.74 53.5663 47.8246 53.4816C47.9092 53.3965 47.7191 53.0485 47.402 52.7075C46.6536 51.9027 45.7326 49.9881 45.7326 49.2365C45.7326 48.647 44.8623 47.9451 44.5362 48.2718C44.1742 48.6347 44.3949 49.5272 45.2876 51.3091C45.7962 52.3238 46.3039 53.579 46.4164 54.0982C46.529 54.6177 46.7908 55.213 46.9984 55.4209C47.767 56.1909 47.3459 56.3821 46.5542 55.6225C46.1023 55.1888 45.7326 54.559 45.7326 54.223C45.7326 53.8867 45.3742 53.2728 44.9363 52.8586C44.278 52.2365 44.1931 52.0201 44.4477 51.6117C44.6926 51.2191 44.6408 50.9607 44.1955 50.3526C43.8872 49.9321 43.4605 48.7943 43.2472 47.8244C42.9177 46.3267 42.7285 45.9835 41.99 45.5471C41.1279 45.0375 40.9652 44.6189 40.6303 42.0445C40.5813 41.6674 40.4608 40.9429 40.3625 40.4344C40.1368 39.2664 40.6344 36.9713 41.649 34.5012C42.0828 33.4451 42.5147 32.0714 42.6089 31.4487C42.7499 30.5134 42.8693 30.3398 43.2946 30.4514C43.5777 30.5255 43.7421 30.6955 43.6596 30.8294C43.5769 30.963 43.6256 31.0724 43.7675 31.0724C44.1942 31.0724 44.3478 29.9659 44.0287 29.1915C43.8644 28.7927 43.7577 28.2479 43.7911 27.9805C43.8247 27.713 43.7516 27.5117 43.6287 27.5328C42.9788 27.645 42.7321 27.439 42.7825 26.8273C42.8134 26.4537 42.9969 26.0872 43.1902 26.0129C43.3836 25.9386 43.5419 25.7433 43.5419 25.5787C43.5419 25.4144 43.4315 25.348 43.2968 25.4314C42.9046 25.6741 42.679 24.7324 43.0281 24.3108C43.282 24.0044 43.2557 23.9625 42.8958 24.1007C42.2515 24.3484 42.3301 23.6885 43.0344 22.9377C43.463 22.4804 43.5443 22.2157 43.3348 21.9598C42.9673 21.5113 42.8153 20.3321 43.0716 19.9198C43.1801 19.7453 43.1535 19.3133 43.0119 18.9597C42.8695 18.6034 42.7455 18.5006 42.7334 18.7288C42.7143 19.0944 42.6825 19.0944 42.4465 18.7288C42.2696 18.4545 42.1797 18.4317 42.1767 18.6602C42.1745 18.8489 42.0352 19.0031 41.8667 19.0031C41.6959 19.0031 41.6241 18.7612 41.7043 18.4545C41.7829 18.1528 41.7208 17.9059 41.5658 17.9059C41.4097 17.9059 41.4519 17.6988 41.66 17.4418C41.8665 17.1864 41.901 17.0586 41.7361 17.1573C41.3423 17.3932 39.3788 16.846 39.5609 16.5508C39.6382 16.4255 39.3955 16.2642 39.0215 16.1926C38.2281 16.0406 37.325 16.643 35.5731 18.4921C34.9102 19.1915 33.875 20.179 33.2725 20.6865L32.1772 21.609L33.2493 20.2731C34.139 19.1649 34.2206 18.9693 33.7285 19.126C33.0694 19.3355 32.9543 19.0341 33.4779 18.469C33.7518 18.1736 33.7518 18.1385 33.4779 18.2932C33.2898 18.3996 33.1356 18.356 33.1356 18.1964C33.1356 18.0367 33.2589 17.9059 33.4095 17.9059C33.5601 17.9059 33.6833 17.7268 33.6833 17.5081C33.6833 17.2892 34.7308 16.234 36.011 15.1628C38.3957 13.1678 38.9179 12.5924 37.5857 13.4282L36.8326 13.9008L37.4942 13.1626C37.8581 12.7567 38.6898 12.1658 39.3427 11.8493C39.9955 11.5327 40.5295 11.1383 40.5295 10.9729C40.5295 10.8075 40.8069 10.3642 41.1457 9.98758C42.4892 8.49455 37.0037 12.9797 34.7771 15.1949C26.3267 23.6007 21.1159 34.4313 19.6911 46.55C19.297 49.903 19.5122 57.778 20.0816 60.8343C21.7668 69.8797 25.4408 78.0915 30.7586 84.6986C32.9946 87.4767 37.5881 91.9325 40.2557 93.9105C55.9757 105.568 76.2821 107.585 93.8513 99.235C104.493 94.178 113.44 85.2143 118.418 74.6259C121.635 67.7821 123.137 61.5458 123.424 53.8395C124.123 35.0778 114.593 17.4582 98.3115 7.40804C93.8193 4.63538 87.4279 2.11811 81.7437 0.882647C79.4951 0.394114 77.9276 0.273412 72.9805 0.208677C69.667 0.165063 66.5862 0.180708 66.1343 0.243249ZM85.7145 2.4223C85.9404 2.47168 86.4692 2.58469 86.8898 2.67357C87.5627 2.81593 87.6059 2.88397 87.2516 3.23892C87.0303 3.46055 86.4807 3.64213 86.0308 3.64213C85.5806 3.64213 85.1657 3.78258 85.1084 3.95429C85.0315 4.18608 84.7601 4.188 84.0588 3.96253C83.5385 3.7952 82.6509 3.58755 82.086 3.50059C81.5213 3.41392 81.0591 3.22272 81.0591 3.07596C81.0591 2.924 81.3718 2.88753 81.7845 2.99122C82.3177 3.12508 82.4554 3.08476 82.3037 2.83898C82.1901 2.65492 82.615 2.76902 83.2476 3.09242C83.8805 3.41583 84.4572 3.62129 84.5293 3.54915C84.6013 3.47701 84.3951 3.33355 84.0705 3.23041C83.4993 3.04882 83.4966 3.02742 83.9816 2.5356C84.2568 2.25636 84.667 2.09672 84.8929 2.18038C85.1189 2.26432 85.4885 2.3732 85.7145 2.4223ZM90.5068 4.34736C91.8889 4.58162 95.6459 6.49845 98.7004 8.52746C101.389 10.3137 105.326 13.4954 105.37 13.9181C105.443 14.6227 105.617 15.1637 105.833 15.3606C105.961 15.478 105.971 15.4078 105.853 15.204C105.681 14.9053 105.75 14.8932 106.214 15.1417C106.53 15.3112 106.931 15.7246 107.106 16.0606L107.423 16.6715L106.77 16.0892C106.038 15.4372 105.179 15.4868 105.728 16.1495C105.903 16.3613 106.201 16.5344 106.39 16.5344C106.946 16.5344 107.438 17.2643 106.996 17.4341C106.514 17.6195 105.116 17.3589 104.663 16.9999C104.466 16.8435 104.332 16.8292 104.364 16.968C104.524 17.6535 103.964 18.1909 103.141 18.1404C102.133 18.0787 101.064 18.384 101.016 18.7472C100.947 19.2623 100.887 19.4269 100.539 20.0553C100.344 20.4075 100.251 20.7627 100.332 20.8442C100.414 20.9259 100.295 21.3514 100.069 21.7897C99.6605 22.5814 99.133 22.6247 99.133 21.8671C99.133 21.6353 98.8674 21.4718 98.4909 21.4718C98.1376 21.4718 97.648 21.2496 97.4026 20.9781C96.7823 20.2915 96.1141 18.2965 96.4063 18.0038C96.5427 17.8672 96.5345 17.5882 96.3874 17.3551C96.2149 17.0819 96.1278 17.0599 96.1248 17.2887C96.1226 17.4774 96.018 17.6316 95.8926 17.6316C95.7669 17.6316 95.6516 17.4774 95.636 17.2887C95.6206 17.1003 95.5442 16.5448 95.4665 16.0543C95.3736 15.4695 95.4385 15.1563 95.6546 15.1436C95.8356 15.1329 95.7373 15.0183 95.4361 14.8885C95.1348 14.7588 95.0505 14.6441 95.2488 14.6334C95.4468 14.623 95.8474 14.7421 96.1388 14.8981C96.733 15.2169 96.8483 14.9042 96.3283 14.3833C96.1029 14.1575 96.0832 13.9773 96.2694 13.8484C96.4238 13.7417 96.5342 13.469 96.5142 13.2427C96.4942 13.0164 96.4592 12.6223 96.4362 12.3666C96.3858 11.8048 95.0464 10.218 95.0341 10.7054C95.0291 10.8941 94.9092 11.0483 94.7671 11.0483C94.6252 11.0483 94.5567 10.8001 94.6151 10.497C94.7367 9.86496 94.1723 8.44215 93.4583 7.58056C92.8879 6.89206 91.6835 6.2535 90.4572 5.98908C89.9783 5.88594 89.4237 5.60368 89.2249 5.36202C88.9037 4.97141 88.9549 4.94288 89.6853 5.10499C90.4578 5.27643 90.4455 5.2542 89.4799 4.73248C88.4017 4.15013 88.1178 3.78094 88.9322 4.0204C89.1959 4.09803 89.9043 4.24505 90.5068 4.34736ZM65.9974 8.13603C65.9974 8.19391 65.7507 8.30582 65.4494 8.38482C65.1479 8.46382 64.9702 8.41637 65.0548 8.27977C65.2021 8.04085 65.9974 7.91961 65.9974 8.13603ZM71.3257 9.38357C71.6001 9.82822 71.0039 9.96344 70.6503 9.53663C70.3751 9.20445 70.3918 9.12819 70.7402 9.12819C70.9754 9.12819 71.2391 9.24313 71.3257 9.38357ZM95.9567 12.3106C96.0722 12.6124 95.9575 12.5995 95.4279 12.2519C94.6137 11.7176 94.577 11.6027 95.2803 11.7867C95.5711 11.863 95.8753 12.0986 95.9567 12.3106ZM73.939 12.557C74.1266 12.7833 74.4032 12.9684 74.5538 12.9684C74.7066 12.9684 74.6768 12.7866 74.4867 12.557C74.2991 12.3307 74.0225 12.1455 73.8719 12.1455C73.7191 12.1455 73.7489 12.3274 73.939 12.557ZM71.0636 14.3399C70.9705 14.4908 71.025 14.6142 71.1844 14.6142C71.3438 14.6142 71.4744 14.4908 71.4744 14.3399C71.4744 14.1891 71.4201 14.0656 71.3536 14.0656C71.287 14.0656 71.1567 14.1891 71.0636 14.3399ZM37.8083 17.3784C36.5798 18.4098 36.2821 18.1083 37.475 17.0407C37.9789 16.5898 38.4715 16.3037 38.5701 16.4043C38.6687 16.5053 38.3259 16.9436 37.8083 17.3784ZM111.326 21.9326C112.16 23.2071 110.821 23.6037 109.649 22.4297C108.832 21.6114 108.976 21.226 110.087 21.2576C110.624 21.2729 111.045 21.5023 111.326 21.9326ZM120.607 38.4786C121.423 41.483 121.451 41.7702 120.935 41.7702C120.551 41.7702 120.306 42.5791 120.036 44.7368C119.916 45.6944 119.75 45.9725 119.169 46.1939C118.675 46.3821 118.42 46.3766 118.354 46.1761C118.3 46.0159 118.096 45.8848 117.899 45.8848C117.485 45.8848 117.253 44.7832 117.177 42.456C117.136 41.2005 117.21 40.8305 117.49 40.896C119.323 41.3237 119.398 41.3121 119.398 40.6036C119.398 39.7343 118.656 37.93 118.299 37.93C118.15 37.93 118.029 37.7448 118.029 37.5185C118.029 37.2922 118.121 37.1216 118.234 37.1395C118.849 37.2368 119.099 37.0234 119.267 36.257C119.53 35.0569 119.798 35.5005 120.607 38.4786ZM122.495 49.0392C122.927 53.3195 122.062 63.3573 121.024 66.0913C120.743 66.8311 120.219 66.949 120.219 66.2726C120.219 65.8842 120.12 65.9067 119.577 66.4177C118.885 67.0692 117.007 68.1033 116.516 68.1033C116.116 68.1033 115.016 66.5954 115.016 66.0474C115.016 65.5945 114.251 64.2537 113.818 63.9471C113.668 63.8417 113.656 63.1107 113.787 62.1641C113.91 61.2819 114.034 59.7576 114.062 58.777C114.128 56.5195 115.253 53.5905 116.55 52.2993C116.907 51.9444 117.196 51.1939 117.311 50.3257C117.413 49.5552 117.624 48.8459 117.78 48.7496C117.935 48.6533 118.169 48.2934 118.299 47.9497C118.478 47.4793 118.698 47.3556 119.189 47.4496C119.585 47.5254 119.988 47.3984 120.213 47.1271C120.445 46.8468 120.899 46.7104 121.428 46.7622L122.273 46.8448L122.495 49.0392ZM92.9714 76.3324C93.0646 76.4832 93.1949 76.6067 93.2614 76.6067C93.328 76.6067 93.3822 76.4832 93.3822 76.3324C93.3822 76.1815 93.2516 76.0581 93.0922 76.0581C92.9328 76.0581 92.8783 76.1815 92.9714 76.3324ZM118.046 114.872L116.626 116.929H117.765C118.686 116.929 119.056 116.766 119.699 116.077C120.136 115.609 120.493 115.099 120.493 114.945C120.493 114.79 120.955 115.184 121.52 115.819C122.431 116.844 122.663 116.964 123.57 116.883L124.594 116.792L123.297 114.808L121.999 112.824L120.733 112.819L119.466 112.815L118.046 114.872ZM97.8235 118.757C97.3292 119.001 96.6514 119.584 96.3173 120.053L95.7099 120.907V135.63C95.7099 150.169 95.717 150.364 96.2864 151.128C97.3333 152.535 98.4821 153 100.913 153C102.737 153 103.277 152.892 104.139 152.355C105.977 151.211 106.253 150.258 106.253 145.056C106.253 142.561 106.187 140.519 106.107 140.519C105.616 140.519 103.213 141.98 102.977 142.421C102.821 142.713 102.693 144.299 102.693 145.945C102.693 149.292 102.433 149.846 100.865 149.846C99.0837 149.846 99.133 150.254 99.133 135.501C99.133 122.592 99.1503 122.151 99.6626 121.876C100.486 121.435 101.74 121.541 102.24 122.094C102.619 122.514 102.693 123.269 102.693 126.745V130.893L104.13 130.227C106.267 129.235 106.299 129.153 106.201 124.834C106.107 120.683 105.928 120.188 104.065 118.918C103.308 118.401 102.797 118.302 100.941 118.307C99.4611 118.311 98.4229 118.461 97.8235 118.757ZM202.511 118.565C201.735 118.891 200.807 119.825 200.316 120.777C199.95 121.486 199.905 123.474 199.97 135.973C200.045 150.105 200.056 150.368 200.623 151.128C201.706 152.584 202.797 153 205.523 152.999C208.323 152.998 209.319 152.618 210.362 151.153L211 150.257V135.67C211 121.3 210.992 121.073 210.427 120.309C209.224 118.683 208.284 118.299 205.551 118.318C204.18 118.328 202.812 118.439 202.511 118.565ZM0 135.39C0 148.102 0.0802241 152.285 0.328604 152.534C0.509344 152.715 1.31035 152.863 2.10862 152.863H3.56003V136.048C3.56003 123.336 3.4798 119.153 3.23142 118.904C3.05068 118.723 2.24968 118.575 1.45141 118.575H0V135.39ZM14.7878 135.719V152.863H16.5678H18.3478L18.367 143.468L18.3859 134.073L20.3787 142.829C22.1905 150.789 22.4388 151.642 23.1133 152.224C23.6498 152.686 24.1926 152.863 25.0724 152.863H26.2894V135.719V118.575H24.5094H22.7294L22.7108 127.97C22.6995 133.673 22.5971 137.149 22.4498 136.816C22.3162 136.514 21.4494 132.564 20.5235 128.038C19.5977 123.512 18.6649 119.531 18.4508 119.192C18.1178 118.664 17.824 118.575 16.4246 118.575H14.7878V135.719ZM34.1398 118.758C34.0393 118.858 33.9572 119.599 33.9572 120.404V121.867H36.4218H38.8864V137.036C38.8864 148.468 38.9675 152.286 39.215 152.534C39.3958 152.715 40.1968 152.863 40.9951 152.863H42.4465V137.672C42.4465 125.559 42.5185 122.423 42.8016 122.187C42.9972 122.025 44.1369 121.855 45.3347 121.811L47.5124 121.729L48.2592 120.358C48.6699 119.604 49.009 118.894 49.0125 118.781C49.0202 118.526 34.3931 118.504 34.1398 118.758ZM55.8746 119.105C55.6881 119.455 55.5912 125.322 55.5912 136.249V152.863H59.8539C62.3122 152.863 64.3442 152.741 64.6547 152.574C65.3007 152.228 66.8189 150.189 66.8189 149.667C66.8189 149.374 66.021 149.297 62.9851 149.297H59.1512V143.135C59.1512 137.275 59.1778 136.958 59.6931 136.682C59.9914 136.522 60.5199 136.463 60.868 136.55C62.1069 136.862 63.4684 135.954 64.5501 134.096C64.733 133.782 64.8869 133.432 64.8924 133.319C64.8976 133.206 63.6081 133.113 62.0266 133.113H59.1512V127.819C59.1512 124.067 59.247 122.429 59.4798 122.196C59.6778 121.997 60.6368 121.867 61.8932 121.867C63.8167 121.867 64.0317 121.808 64.672 121.112C65.4919 120.221 66.2712 119.088 66.2712 118.788C66.2712 118.671 63.9959 118.575 61.2147 118.575C56.4957 118.575 56.1392 118.61 55.8746 119.105ZM73.6652 135.7V152.863H75.4452H77.2252V145.457V138.05H78.5421C80.9769 138.05 80.9106 137.841 81.0037 145.846L81.0853 152.863H82.8722H84.6588L84.5706 145.525C84.4852 138.447 84.46 138.152 83.8591 137.184C83.4916 136.592 83.3553 136.141 83.5267 136.084C83.6866 136.03 83.9922 135.494 84.2061 134.893C84.6585 133.62 84.7743 123.554 84.3573 121.753C84.2102 121.118 83.7074 120.277 83.1277 119.696L82.1468 118.712L77.906 118.624L73.6652 118.536V135.7ZM118.84 118.918C118.834 119.107 117.688 126.821 116.291 136.062L113.753 152.863H115.692H117.63L119.095 141.411C119.9 135.112 120.591 129.922 120.63 129.877C120.755 129.734 120.995 131.396 122.266 141.205C122.95 146.485 123.581 151.269 123.668 151.834L123.828 152.863H125.72C126.762 152.863 127.613 152.797 127.613 152.716C127.613 151.881 122.619 119.651 122.418 119.192C122.181 118.65 121.946 118.575 120.499 118.575C119.368 118.575 118.847 118.683 118.84 118.918ZM136.924 135.719V152.863H138.7H140.476L140.549 144.432L140.621 136.001L141.654 140.66C142.58 144.839 142.771 145.397 143.507 146.074C144.048 146.572 144.627 146.828 145.212 146.828H146.098L147.374 141.274L148.651 135.719L148.675 144.291L148.7 152.863H150.48H152.26V135.719V118.575H150.633C149.678 118.575 148.923 118.709 148.806 118.899C148.696 119.077 147.721 123.675 146.639 129.116C145.557 134.558 144.601 138.825 144.514 138.599C144.427 138.373 143.486 133.944 142.424 128.757C141.361 123.57 140.352 119.157 140.18 118.951C139.988 118.718 139.309 118.575 138.397 118.575H136.924V135.719ZM163.487 135.745V152.914L167.439 152.82C171.809 152.716 172.273 152.553 173.551 150.671C174.146 149.796 174.167 149.546 174.167 143.475V137.185L173.367 136.384L172.567 135.582L173.367 134.78L174.167 133.978L174.166 127.717C174.165 121.952 174.122 121.384 173.621 120.561C172.57 118.834 171.762 118.577 167.39 118.576L163.487 118.575V135.745ZM185.395 135.552C185.395 154.555 185.192 152.863 187.472 152.863H188.681V136.153C188.681 126.962 188.607 119.248 188.515 119.009C188.392 118.687 187.966 118.575 186.872 118.575H185.395V135.552ZM207.029 121.867C207.562 122.4 207.577 122.781 207.577 135.629C207.577 150.511 207.671 149.846 205.571 149.846C203.352 149.846 203.469 150.634 203.469 135.676C203.469 122.781 203.484 122.4 204.017 121.867C204.356 121.527 204.93 121.318 205.523 121.318C206.116 121.318 206.69 121.527 207.029 121.867ZM80.0943 122.188C80.4815 122.365 80.8649 122.775 80.9462 123.099C81.0276 123.424 81.0552 126.005 81.0081 128.835C80.9095 134.728 80.8966 134.759 78.5421 134.759H77.2252V128.313V121.867H78.3077C78.903 121.867 79.7071 122.011 80.0943 122.188ZM170.098 122.391C170.736 122.909 170.744 122.986 170.744 128.037C170.744 133.909 170.734 133.936 168.364 133.936H167.047V127.901V121.867H168.249C169.025 121.867 169.681 122.053 170.098 122.391ZM170.223 137.805C170.696 138.329 170.744 138.852 170.744 143.415C170.744 146.997 170.648 148.543 170.412 148.78C170.229 148.963 169.397 149.17 168.563 149.239L167.047 149.365V143.296V137.228H168.374C169.376 137.228 169.829 137.369 170.223 137.805Z"
        fill="var(--primary-color)"></path>
</svg>