<svg width="110" height="28" viewBox="0 0 151 37" fill="none" xmlns="http://www.w3.org/2000/svg">
    <path fill-rule="evenodd" clip-rule="evenodd"
        d="M146.433 36.5H4.56653C2.05494 36.5 0 34.4834 0 32.0187V4.98133C0 2.5166 2.05494 0.5 4.56653 0.5H146.433C148.945 0.5 151 2.5166 151 4.98133V32.0187C151 34.4834 148.945 36.5 146.433 36.5Z"
        fill="#FCF3EB" />
    <path
        d="M61.2978 12.0022C56.3888 12.0022 52.355 14.579 52.355 19.9566C52.355 23.1309 55.171 25.1475 58.7481 25.1475C59.9659 25.1475 61.45 24.9981 62.6297 24.6246L63.0102 22.0105C62.0589 22.3093 61.1075 22.5333 60.08 22.5333C57.9109 22.5333 56.6171 21.3757 56.6171 19.5084C56.6171 16.4462 58.672 14.6163 61.6022 14.6163C62.6677 14.6163 63.7333 14.9151 64.3421 15.2512L65.2554 12.5997C64.7227 12.413 63.3527 12.0022 61.2978 12.0022Z"
        fill="#183967" />
    <path
        d="M69.452 22.8775C68.5768 22.8775 68.3104 22.3173 68.3104 21.6078C68.3104 19.1057 70.3653 17.2758 72.23 17.2758C72.3822 17.2758 72.6105 17.3132 72.8008 17.3505L72.3441 19.0683C71.7733 21.197 70.7078 22.8775 69.452 22.8775ZM72.8769 15.0725C68.9573 15.0725 64.2766 17.3132 64.2766 22.0186C64.2766 23.8484 65.3421 25.1181 67.6635 25.1181C69.5281 25.1181 70.6317 24.1472 71.4689 22.8775C71.3167 23.6244 71.1264 24.4459 71.0883 24.9314H75.008C75.046 24.3339 75.1221 23.5123 75.4266 22.0932L76.9107 15.5953C76.1876 15.3339 74.2849 15.0725 72.8769 15.0725Z"
        fill="#183967" />
    <path
        d="M82.9234 22.9101C81.934 22.9101 81.6295 22.2006 81.6295 21.379C81.6295 19.9972 82.3526 17.3458 84.2172 17.3458C85.2067 17.3458 85.473 18.0927 85.473 18.8769C85.5111 20.2213 84.75 22.9101 82.9234 22.9101ZM91.067 11.184H87.2997L86.0439 16.7109C85.6633 15.74 84.6358 15.1425 83.2278 15.1425C79.9932 15.1425 77.6338 18.13 77.6338 22.0138C77.6338 23.2089 78.2427 25.1881 81.0587 25.1881C82.619 25.1881 83.7986 24.5906 84.7881 23.2462L84.4836 24.9641H88.0227C88.1368 24.3292 88.213 23.6943 88.4793 22.5367L91.067 11.184Z"
        fill="#183967" />
    <path
        d="M95.886 22.8775C95.0107 22.8775 94.7444 22.3173 94.7444 21.6078C94.7444 19.1057 96.7993 17.2758 98.664 17.2758C98.8162 17.2758 99.0445 17.3132 99.2348 17.3505L98.7781 19.0683C98.2073 21.197 97.1798 22.8775 95.886 22.8775ZM99.349 15.0725C95.4293 15.0725 90.7486 17.3132 90.7486 22.0186C90.7486 23.8484 91.8142 25.1181 94.1355 25.1181C96.0002 25.1181 97.1037 24.1472 97.9409 22.8775C97.7887 23.6244 97.5984 24.4459 97.5604 24.9314H101.48C101.518 24.3339 101.594 23.5123 101.899 22.0932L103.383 15.5953C102.622 15.3339 100.719 15.0725 99.349 15.0725Z"
        fill="#183967" />
    <path
        d="M110.297 15.0739C108.013 15.0739 104.588 15.7461 104.588 18.4349C104.588 21.0864 109.155 20.8623 109.155 22.132C109.155 23.0283 107.709 23.1777 106.986 23.1777C105.92 23.1777 104.969 22.8789 104.056 22.4308L103.371 24.6715C104.588 25.0076 105.844 25.1569 107.1 25.1569C109.574 25.1569 112.846 24.5221 112.846 21.6092C112.846 19.0698 108.204 19.2192 108.204 17.9495C108.204 17.1652 109.459 17.0159 110.106 17.0159C111.058 17.0159 112.009 17.2399 112.884 17.576L113.607 15.5221C112.58 15.2607 111.4 15.0739 110.297 15.0739Z"
        fill="#183967" />
    <path
        d="M121.163 12.363L117.129 13.4834L116.711 15.3133H114.922L114.389 17.5166H116.178L115.265 21.5871C115.15 22.0352 115.112 22.4834 115.112 22.9689C115.112 24.5747 116.216 25.1722 117.776 25.1722C118.994 25.1722 120.097 24.9481 120.744 24.7614L121.125 22.4834C120.744 22.6328 120.364 22.7074 119.983 22.7074C119.413 22.7074 119.07 22.5207 119.07 21.9606C119.07 21.6991 119.108 21.5124 119.146 21.251L119.983 17.5539H122.267L122.761 15.3506H120.516L121.163 12.363Z"
        fill="#183967" />
    <path
        d="M134.826 15.2891H131.02L129.765 20.9281C129.574 21.8617 129.042 22.9073 127.824 22.9073C127.101 22.9073 126.758 22.5339 126.758 21.9364C126.758 21.6376 126.834 21.3389 126.872 21.0775L128.204 15.2517H124.399L122.915 21.787C122.839 22.1231 122.801 22.4592 122.801 22.8327C122.801 24.4758 124.018 25.1107 125.693 25.1107C127.443 25.1107 128.585 24.2517 129.422 23.2061L129.118 24.9239H132.695C132.771 24.2517 132.923 23.5049 133.075 22.8327L134.826 15.2891Z"
        fill="#183967" />
    <path
        d="M143.84 15.0739C142.204 15.0739 140.986 16.0822 140.263 17.352L140.682 15.298H137.067C136.99 15.9702 136.838 16.6798 136.686 17.352L134.974 24.9329H138.779L139.654 21.0491C139.997 19.5179 141.138 18.1735 142.889 18.1735C143.193 18.1735 143.498 18.2109 143.764 18.3229L144.601 15.2233C144.373 15.1113 144.107 15.0739 143.84 15.0739Z"
        fill="#183967" />
    <path
        d="M65.3008 11.4318C65.1486 11.0957 60.4298 7.99614 54.6075 7.6227C48.671 6.98784 41.8973 9.6393 35.0856 14.27C28.2738 18.9007 21.6524 21.9256 16.0203 22.0003C10.4644 22.299 6.0881 20.1704 6.39253 20.88C6.54475 21.2161 11.2635 24.3156 17.0858 24.6891C23.0223 25.3239 29.796 22.6725 36.6078 18.0418C43.4195 13.4111 50.041 10.3862 55.673 10.3115C61.229 9.97539 65.6052 12.1414 65.3008 11.4318Z"
        fill="#8ACF25" />
    <path
        d="M62.3004 26.1002C62.1863 26.3989 57.8481 29.1624 52.4063 29.1624C46.8503 29.4238 40.4191 26.4736 33.8357 21.6189C27.2523 16.7641 20.9353 13.4031 15.6457 13.0296C10.4322 12.3948 6.39847 14.262 6.62679 13.5898C6.74096 13.2911 11.0792 10.5276 16.5209 10.5276C22.0769 10.2662 28.5081 13.2164 35.0915 18.0711C41.6749 22.9259 47.992 26.2869 53.2815 26.6604C58.533 27.2579 62.5668 25.428 62.3004 26.1002Z"
        fill="#FBC707" />
</svg>