<svg width="110" height="28" viewBox="0 0 151 37" fill="none" xmlns="http://www.w3.org/2000/svg">
    <path fill-rule="evenodd" clip-rule="evenodd"
        d="M146.433 36.5H4.56653C2.05494 36.5 0 34.4834 0 32.0187V4.98133C0 2.5166 2.05494 0.5 4.56653 0.5H146.433C148.945 0.5 151 2.5166 151 4.98133V32.0187C151 34.4834 148.945 36.5 146.433 36.5Z"
        fill="#FCF3EB" />
    <path d="M27.7417 10.1349H10.5791V26.8651H27.7417V10.1349Z" fill="white" />
    <path fill-rule="evenodd" clip-rule="evenodd"
        d="M42.659 26.3423V24.0643H34.4393V19.1349H39.0058V16.8195H34.4393V12.973H42.3165V10.695H32.0418V26.3423H42.659Z"
        fill="black" />
    <path fill-rule="evenodd" clip-rule="evenodd"
        d="M58.9463 26.3423V10.6577H56.3967L52.8957 19.0228C52.5151 19.9564 52.0585 21.0768 51.8301 21.7116C51.6399 21.0768 51.1071 19.9191 50.7266 19.0228L47.1494 10.6577H44.6759V26.3423H46.9211V18.0519C46.9211 17.1183 46.8831 15.7365 46.8831 15.2884C47.0733 15.7365 47.53 16.8568 47.9105 17.7531L51.754 26.5664L55.6356 17.7531C56.0161 16.8568 56.4728 15.7365 56.6631 15.2884C56.625 15.7365 56.625 17.1183 56.625 18.0519V26.3423H58.9463Z"
        fill="black" />
    <path fill-rule="evenodd" clip-rule="evenodd"
        d="M70.9335 21.5996C70.9335 23.1307 70.1724 24.2137 68.0413 24.2137H63.7792V19.0228H68.1174C69.906 19.0228 70.9335 19.9938 70.9335 21.5996ZM70.2866 14.8776C70.2866 15.9232 69.6396 16.8568 68.0794 16.8568H63.7792V12.8237H68.0794C69.6777 12.8237 70.2866 13.7199 70.2866 14.8776ZM73.3309 21.5249C73.3309 19.3589 71.8848 18.2012 70.629 17.8651C71.8087 17.305 72.6459 16.334 72.6459 14.7282C72.6459 12.0768 70.8574 10.6577 68.0794 10.6577H61.496V26.3423H67.8511C71.3521 26.3423 73.3309 24.6992 73.3309 21.5249Z"
        fill="black" />
    <path fill-rule="evenodd" clip-rule="evenodd"
        d="M85.3942 15.4378C85.3942 17.1556 84.2906 17.9398 82.6923 17.9398H78.0497V12.8983H82.6923C84.3286 12.8983 85.3942 13.7946 85.3942 15.4378ZM87.8296 15.3631C87.8296 12.1515 85.4703 10.695 82.6923 10.695H75.6903V26.3797H78.0497V20.1432H81.6648L84.8233 26.3423H87.6013L84.3286 19.9564C86.4977 19.3963 87.8296 17.8651 87.8296 15.3631Z"
        fill="black" />
    <path fill-rule="evenodd" clip-rule="evenodd"
        d="M97.5716 20.5166H92.6245L93.9184 16.9315C94.337 15.7739 94.9078 13.9813 95.098 13.3091C95.2883 13.9813 95.9352 15.8112 96.3158 16.9315L97.5716 20.5166ZM102.176 26.3423L96.3538 10.6577H93.8042L88.058 26.3423H90.5315L91.8634 22.6079H98.2565L99.5885 26.3423H102.176Z"
        fill="black" />
    <path fill-rule="evenodd" clip-rule="evenodd"
        d="M112.223 12.973V10.695H100.502V12.973H105.182V26.3423H107.58V12.973H112.223Z" fill="black" />
    <path fill-rule="evenodd" clip-rule="evenodd"
        d="M125.808 19.8071V10.695H123.411V19.8444C123.411 22.7199 122.231 24.2137 119.719 24.2137C117.322 24.2137 116.066 22.6079 116.066 19.6577V10.695H113.669V19.7697C113.669 24.1017 115.724 26.6037 119.681 26.6037C123.639 26.6037 125.808 24.2137 125.808 19.8071Z"
        fill="black" />
    <path fill-rule="evenodd" clip-rule="evenodd"
        d="M137.985 15.4378C137.985 17.1556 136.882 17.9398 135.284 17.9398H130.641V12.8983H135.284C136.92 12.8983 137.985 13.7946 137.985 15.4378ZM140.421 15.3631C140.421 12.1515 138.061 10.695 135.284 10.695H128.282V26.3797H130.641V20.1432H134.256L137.415 26.3423H140.193L136.92 19.9564C139.089 19.3963 140.421 17.8651 140.421 15.3631Z"
        fill="black" />
    <path fill-rule="evenodd" clip-rule="evenodd" d="M11.15 10.695H26.2195L11.15 25.4461V10.695Z"
        fill="#009075" />
    <path fill-rule="evenodd" clip-rule="evenodd"
        d="M12.1013 26.3423L27.1709 11.5913V26.3797H12.1013V26.3423ZM27.1709 26.3423H18.7228V25.8568C18.7228 22.4585 21.5769 19.695 25.0018 19.695C25.7629 19.695 26.5239 19.8071 27.1709 20.0311V21.1888C26.5239 20.89 25.8009 20.7407 25.0018 20.7407C22.1477 20.7407 19.7883 23.0934 19.7883 25.8568V26.3423H27.1709Z"
        fill="#FFDC00" />
    <path fill-rule="evenodd" clip-rule="evenodd"
        d="M27.1709 21.1888V26.3797H19.7883V25.8942C19.7883 23.0934 22.1857 20.778 25.0018 20.778C25.8009 20.7407 26.5239 20.89 27.1709 21.1888Z"
        fill="#0066B2" />
</svg>